<?xml version="1.0" standalone="no"?>
<!DOCTYPE svg PUBLIC "-//W3C//DTD SVG 20010904//EN"
 "http://www.w3.org/TR/2001/REC-SVG-20010904/DTD/svg10.dtd">
<svg version="1.0" xmlns="http://www.w3.org/2000/svg"
 width="168.000000pt" height="48.000000pt" viewBox="0 0 168.000000 48.000000"
 preserveAspectRatio="xMidYMid meet">

<g transform="translate(0.000000,48.000000) scale(0.100000,-0.100000)"
fill="#000000" stroke="none">
<path d="M135 368 c-3 -8 -4 -72 -3 -144 l3 -129 35 0 35 0 0 140 0 140 -33 3
c-20 2 -34 -2 -37 -10z"/>
<path d="M870 345 c0 -24 5 -35 15 -35 11 0 15 -21 17 -107 l3 -108 35 0 35 0
3 108 c2 86 6 107 17 107 10 0 15 11 15 35 l0 35 -70 0 -70 0 0 -35z"/>
<path d="M1215 368 c-3 -8 -4 -72 -3 -144 l3 -129 30 0 30 0 0 140 0 140 -28
3 c-16 2 -29 -2 -32 -10z"/>
<path d="M1427 362 c-10 -10 -17 -30 -17 -44 0 -27 -20 -41 -45 -32 -8 4 -27
3 -41 0 l-26 -7 21 -18 c23 -20 28 -41 9 -41 -6 0 -9 -2 -7 -5 11 -10 49 8 49
24 0 14 -2 14 -10 1 -8 -12 -10 -12 -10 -1 0 8 -8 20 -17 27 -16 12 -16 13 9
14 15 0 31 -8 37 -17 9 -16 10 -16 11 -2 0 20 24 31 48 22 16 -7 16 -6 0 11
-20 19 -24 51 -8 61 6 4 10 -7 10 -24 0 -31 13 -41 26 -19 4 7 3 8 -4 4 -8 -5
-12 1 -12 16 0 18 2 20 10 8 7 -10 10 -11 10 -2 0 7 -7 15 -16 19 -13 5 -13 7
-2 14 7 5 8 9 2 9 -6 0 -18 -8 -27 -18z"/>
<path d="M1471 377 c2 -1 13 -9 24 -17 19 -14 19 -14 6 3 -7 9 -18 17 -24 17
-6 0 -8 -1 -6 -3z"/>
<path d="M580 325 c0 -14 -4 -25 -10 -25 -5 0 -10 -11 -10 -25 0 -14 5 -25 10
-25 6 0 10 -30 10 -70 0 -77 3 -81 62 -84 27 -1 34 3 36 22 2 13 -3 25 -12 28
-22 9 -23 104 -1 104 9 0 15 9 15 25 0 16 -6 25 -15 25 -9 0 -15 9 -15 25 0
22 -4 25 -35 25 -31 0 -35 -3 -35 -25z"/>
<path d="M232 203 l3 -108 33 -3 32 -3 0 85 c0 69 3 86 15 86 11 0 15 -18 17
-82 l3 -83 30 0 30 0 3 94 c2 60 -1 98 -9 107 -14 17 -61 18 -77 2 -9 -9 -12
-9 -12 0 0 7 -15 12 -35 12 l-36 0 3 -107z"/>
<path d="M427 303 c-4 -3 -7 -32 -7 -64 0 -59 7 -69 51 -69 10 0 19 -4 19 -10
0 -5 -16 -10 -35 -10 -31 0 -35 -3 -35 -25 0 -33 21 -40 78 -29 51 10 62 29
54 97 -4 33 -7 37 -33 37 -19 0 -29 5 -29 15 0 10 10 15 30 15 25 0 30 4 30
25 0 24 -3 25 -58 25 -32 0 -62 -3 -65 -7z"/>
<path d="M702 298 c-13 -13 -17 -135 -6 -176 7 -26 44 -38 72 -23 13 7 22 7
29 0 6 -6 21 -9 34 -7 23 3 24 6 27 111 l3 107 -36 0 c-20 0 -35 -5 -35 -12 0
-9 -3 -9 -12 0 -7 7 -24 12 -38 12 -14 0 -31 -5 -38 -12z m88 -93 c0 -42 -3
-55 -15 -55 -12 0 -15 13 -15 55 0 42 3 55 15 55 12 0 15 -13 15 -55z"/>
<path d="M1032 298 c-13 -13 -17 -135 -6 -176 7 -26 44 -38 72 -23 13 7 22 7
29 0 6 -6 21 -9 34 -7 23 3 24 6 27 111 l3 107 -36 0 c-20 0 -35 -5 -35 -12 0
-9 -3 -9 -12 0 -7 7 -24 12 -38 12 -14 0 -31 -5 -38 -12z m88 -93 c0 -42 -3
-55 -15 -55 -12 0 -15 13 -15 55 0 42 3 55 15 55 12 0 15 -13 15 -55z"/>
<path d="M1489 293 c-13 -16 -12 -17 4 -4 16 13 21 21 13 21 -2 0 -10 -8 -17
-17z"/>
<path d="M1291 239 c0 -15 7 -33 17 -40 15 -12 16 -12 5 1 -6 8 -13 26 -16 40
l-4 25 -2 -26z"/>
<path d="M1372 209 c-8 -13 -9 -18 -2 -14 17 10 40 -14 41 -44 1 -20 2 -22 6
-6 9 36 23 41 23 7 0 -36 -1 -36 37 -21 27 10 28 11 8 25 -18 14 -20 13 -26
-8 -5 -20 -6 -19 -10 10 -5 28 -3 32 16 32 11 0 27 -6 35 -12 12 -11 12 -10 1
5 -15 19 -51 23 -68 6 -14 -14 -32 -4 -41 22 -7 18 -8 18 -20 -2z"/>
<path d="M1492 114 c-7 -8 -8 -14 -3 -14 10 0 25 19 20 25 -2 1 -10 -3 -17
-11z"/>
<path d="M1427 109 c7 -7 15 -10 18 -7 3 3 -2 9 -12 12 -14 6 -15 5 -6 -5z"/>
</g>
</svg>
